Simulation
nRows=44
nColumns=15
endheader
time  TH_x TH_y TH_z SC_y  SC_z  SC_x  AC_y  AC_z  AC_x  GH_y  GH_z  GH_yy  EL_x  PS_y
0.0  0.000000  0.000000  0.000000  -29.32192792670484  -0.6025845502078183  -1.6014420442237693  50.39409474201953  6.807417698744227  -3.866451929648133  39.51597517978164  9.167571730262035  -9.571276584070903  22.823317972947965  0.000000
0.031  0.000000  0.000000  0.000000  -29.29425135940179  -0.4534950269546525  -1.5458302157097585  50.143698985360864  7.02257271630932  -3.9313322786126554  39.39200321764811  9.350652485781753  -9.615519237333668  22.79834957151538  0.000000
0.062  0.000000  0.000000  0.000000  -29.16863943624965  -0.3944036851010701  -1.5004645151107807  49.97174775425579  7.069597148417802  -4.05140566449099  39.31395932929192  9.498573019986294  -9.600911959760104  22.727594964551233  0.000000
0.093  0.000000  0.000000  0.000000  -29.172820965262055  -0.3987028506588227  -1.4323385115990936  49.86271324238844  6.993954197440128  -4.166463330084512  39.256360542231235  9.654736401881339  -9.582543917029499  22.660106345426392  0.000000
0.124  0.000000  0.000000  0.000000  -29.178732272619637  -0.4469006866125951  -1.3876687257240927  49.801442564445196  6.895014131541523  -4.27090218519106  39.20382664919386  9.829300371731158  -9.588670428567749  22.57404788440724  0.000000
0.155  0.000000  0.000000  0.000000  -29.22311534157199  -0.5239955599437134  -1.3610413889405977  49.78811363937552  6.796993884442955  -4.357353430934098  39.145552737879036  10.074932973214928  -9.629619823007056  22.45746111650616  0.000000
0.186  0.000000  0.000000  0.000000  -29.278219830052933  -0.6086565290037382  -1.359101139597245  49.792594486187696  6.708254058139408  -4.415373949656425  39.04498198130198  10.413888136550035  -9.736253768367689  22.319227117828532  0.000000
0.217  0.000000  0.000000  0.000000  -29.354735153538435  -0.6926438717191876  -1.3746962545988317  49.8217950068404  6.633669961738033  -4.450709051006663  38.89605259719892  10.868069340347354  -9.902786232846925  22.152164956479012  0.000000
0.248  0.000000  0.000000  0.000000  -29.4454983752341  -0.7692236240724696  -1.4044957918877525  49.85401915587727  6.572449083850871  -4.461178009347727  38.679347817498716  11.43452660343778  -10.135202449327721  21.96679587363149  0.000000
0.279  0.000000  0.000000  0.000000  -29.54677433460517  -0.8345442336141335  -1.4410481584121784  49.89474265440663  6.529013358335815  -4.45819554867244  38.39745712308421  12.106113989238661  -10.413654562778348  21.768813420698528  0.000000
0.31  0.000000  0.000000  0.000000  -29.647680018306616  -0.884140318444525  -1.4796907209829342  49.9290794190043  6.510254699519735  -4.44168942739619  38.04870948511525  12.86009628207458  -10.719468133957626  21.578765263996768  0.000000
0.34099999999999997  0.000000  0.000000  0.000000  -29.745902511901043  -0.9179068717662052  -1.516646522845946  49.96961332003722  6.519157825220365  -4.4136925398603255  37.6300285119871  13.684695343841009  -11.034405552709986  21.405134495827404  0.000000
0.372  0.000000  0.000000  0.000000  -29.845465994062657  -0.9397532858069624  -1.545334302306321  50.024519264202816  6.553732672138869  -4.368812569190339  37.124246873956096  14.567227357977703  -11.349557371895056  21.262867416146953  0.000000
0.403  0.000000  0.000000  0.000000  -29.952627960824522  -0.9549853311979503  -1.557959084380391  50.113436384419565  6.606603604693108  -4.30595952663788  36.50591948120066  15.502445988420524  -11.661146675546624  21.163392708565166  0.000000
0.434  0.000000  0.000000  0.000000  -30.06731180162712  -0.967014003127771  -1.5457991939807312  50.24125992390745  6.675096466309454  -4.229043513847377  35.75647783551776  16.4815409014728  -11.956060978934195  21.128532372388612  0.000000
0.46499999999999997  0.000000  0.000000  0.000000  -30.179341172725717  -0.9735738787714455  -1.504878495277836  50.40237954387821  6.759026249854229  -4.1446260642035515  34.878776934007064  17.49867438291537  -12.212347714636763  21.166043074475258  0.000000
0.496  0.000000  0.000000  0.000000  -30.275511507978294  -0.9688030769169487  -1.4355327571643932  50.582382074410745  6.858059221216715  -4.05933688687673  33.90266551407956  18.55530255582087  -12.40530333976496  21.26416670072846  0.000000
0.527  0.000000  0.000000  0.000000  -30.343294369029447  -0.9456637509404238  -1.3400426606138636  50.76612189142128  6.968247888124105  -3.9754709585886645  32.87533282416602  19.65808190947421  -12.523388395417587  21.388465151507305  0.000000
0.558  0.000000  0.000000  0.000000  -30.37944010886714  -0.8984290839654335  -1.2191953762134407  50.945011717263725  7.083482431734465  -3.893986861730751  31.847849001157115  20.815578330605707  -12.574905869112678  21.505516707191152  0.000000
0.589  0.000000  0.000000  0.000000  -30.390824010894185  -0.8229564988196664  -1.0704908062566425  51.11474970252165  7.199387823628572  -3.8146142806951344  30.866593116617885  22.03071497017525  -12.585607457633742  21.596121459188605  0.000000
0.62  0.000000  0.000000  0.000000  -30.39182562679258  -0.7173615647195355  -0.8911121725120993  51.2775879224383  7.3139760351400165  -3.736168645383997  29.96607650182167  23.302792214706443  -12.592939272699025  21.65399250973605  0.000000
0.651  0.000000  0.000000  0.000000  -30.39591971380043  -0.5824518980327682  -0.6786697571534931  51.43727473137178  7.427587792707497  -3.6568484180577796  29.16598488365364  24.628467110692384  -12.632165731575721  21.677208520983932  0.000000
0.6819999999999999  0.000000  0.000000  0.000000  -30.405623089307408  -0.422302335895149  -0.43167188184394056  51.597384888936794  7.540628205027224  -3.5784492575136  28.464108117402205  26.00506846151087  -12.72407186229648  21.66737946115435  0.000000
0.713  0.000000  0.000000  0.000000  -30.41127589781229  -0.24367530030235923  -0.14830057057816223  51.75611238434541  7.653413496370811  -3.5082602437652888  27.839738456508428  27.430036630371667  -12.864970189908439  21.630868881419406  0.000000
0.744  0.000000  0.000000  0.000000  -30.39787844824834  -0.05445589718261517  0.17306130398605507  51.909625384647704  7.765657364820183  -3.4569604636497684  27.263308026323507  28.90061407290477  -13.034031512581151  21.57792229354997  0.000000
0.775  0.000000  0.000000  0.000000  -30.35686673964148  0.13919320526125015  0.5354449280879883  52.055336939956554  7.877049422900629  -3.4329504879366692  26.71332516708687  30.409254723035463  -13.208237448518346  21.516614375410857  0.000000
0.806  0.000000  0.000000  0.000000  -30.290960285177047  0.334216995290662  0.9432364287389498  52.19767375740164  7.987738376745058  -3.4383737432206423  26.184670354827656  31.940665240463336  -13.380211775804344  21.447569167254315  0.000000
0.837  0.000000  0.000000  0.000000  -30.211835826477934  0.5301428111703659  1.4021564746384971  52.34480077355221  8.098977949901434  -3.469865300160475  25.687942761257332  33.4717368160611  -13.559416516427099  21.36433400539842  0.000000
0.868  0.000000  0.000000  0.000000  -30.131648052788968  0.7278132624191762  1.9160476392122878  52.50462697895664  8.21248668512592  -3.522607225016904  25.23895076293534  34.977568612218946  -13.762423881986521  21.25901196112157  0.000000
0.899  0.000000  0.000000  0.000000  -30.057255334277002  0.9277359215222177  2.4852570948791497  52.678557227093606  8.328976162487772  -3.5932344174640276  24.848847225429246  36.4374819112922  -14.001098040188678  21.126842064854532  0.000000
0.9299999999999999  0.000000  0.000000  0.000000  -29.989015064381043  1.129182640503057  3.105178961294302  52.86250401019126  8.447601167073742  -3.6810522317483887  24.51969293011336  37.83986083119148  -14.280214681454687  20.966595388648866  0.000000
0.961  0.000000  0.000000  0.000000  -29.92498164737023  1.3316200873737303  3.7691137171689735  53.04682131085456  8.567159626390804  -3.786832570369613  24.24946379260353  39.17949612109374  -14.60114611638503  20.77914499989369  0.000000
0.992  0.000000  0.000000  0.000000  -29.865715413096567  1.5363310385406939  4.470209098485473  53.220084835725196  8.688250016810695  -3.9121904530077107  24.0394842161639  40.45464629633451  -14.970786523162921  20.565759473681602  0.000000
1.023  0.000000  0.000000  0.000000  -29.817106213235046  1.7469543866159005  5.204105073462929  53.36923365739061  8.81364631601278  -4.057743015502798  23.898045786979775  41.66438446427655  -15.403569822211944  20.328017377244485  0.000000
1.054  0.000000  0.000000  0.000000  -29.787564233875088  1.9689254309703954  5.968739674989757  53.484542405264484  8.947648825471084  -4.222186407598244  23.833673317447932  42.80938687004722  -15.915310416224255  20.067855236386073  0.000000
1.085  0.000000  0.000000  0.000000  -29.783161962842595  2.207265650534664  6.765067228897403  53.562711929834656  9.093984743123062  -4.4000558911093695  23.84213646197705  43.89206180540712  -16.505555567288123  19.790355490721733  0.000000
1.116  0.000000  0.000000  0.000000  -29.80629529654103  2.4658988573839284  7.594555834249248  53.61224578144972  9.253891803353268  -4.579955721081703  23.89845691217182  44.91778998943718  -17.14440776454641  19.50523756438835  0.000000
1.147  0.000000  0.000000  0.000000  -29.855148215328544  2.7450752465612673  8.459346707555625  53.64857062771425  9.425759710510698  -4.748571212751023  23.960218023875036  45.894080092839665  -17.775711403907216  19.227454130378067  0.000000
1.178  0.000000  0.000000  0.000000  -29.92739837649958  3.0410419322001188  9.360819726649948  53.687128411428084  9.60707059636879  -4.8954312018585  23.98401802705886  46.82840129108978  -18.340661520734685  18.973323545833317  0.000000
1.209  0.000000  0.000000  0.000000  -30.02678569189317  3.351246103307208  10.298362320116768  53.735871886799266  9.792776098932809  -5.013674092482402  23.946464542200303  47.72655452713482  -18.801990323006343  18.75505582771108  0.000000
1.24  0.000000  0.000000  0.000000  -30.16159922834486  3.67471916867651  11.267923993022107  53.79068401674259  9.97800795442374  -5.101443006832845  23.852403405739057  48.59125504065264  -19.155875382102778  18.577903046996987  0.000000
1.271  0.000000  0.000000  0.000000  -30.340885229223264  4.011374686200228  12.26061057508795  53.83849413343767  10.161017851564221  -5.159667770425879  23.72584105526357  49.42241728104312  -19.421153469792667  18.440092485350277  0.000000
1.302  0.000000  0.000000  0.000000  -30.56803867591682  4.3601531415488415  13.265200904522057  53.86585309192528  10.34306483777647  -5.190720744108171  23.590285357621184  50.21786337244858  -19.622115939512142  18.335664915087516  0.000000
1.333  0.000000  0.000000  0.000000  -30.83490110860023  4.7162258859188  14.271346675542594  53.864937958622946  10.526692706946056  -5.197923112276276  23.452902106177685  50.975328010600236  -19.77539273415884  18.255550181385402  0.000000
